<svg width="56" height="56" viewBox="0 0 56 56" fill="none" xmlns="http://www.w3.org/2000/svg">
<rect x="4" y="4" width="48" height="48" rx="24" fill="#ECDDFF"/>
<rect x="4" y="4" width="48" height="48" rx="24" stroke="#F8F2FF" stroke-width="8"/>
<path d="M29.125 33.0156C29.125 33.2381 29.059 33.4556 28.9354 33.6406C28.8118 33.8256 28.6361 33.9698 28.4305 34.055C28.225 34.1401 27.9988 34.1624 27.7805 34.119C27.5623 34.0756 27.3618 33.9685 27.2045 33.8111C27.0472 33.6538 26.94 33.4533 26.8966 33.2351C26.8532 33.0169 26.8755 32.7907 26.9606 32.5851C27.0458 32.3795 27.19 32.2038 27.375 32.0802C27.56 31.9566 27.7775 31.8906 28 31.8906C28.2984 31.8906 28.5845 32.0092 28.7955 32.2201C29.0065 32.4311 29.125 32.7173 29.125 33.0156ZM28 22.8906C25.9319 22.8906 24.25 24.4047 24.25 26.2656V26.6406C24.25 26.8395 24.329 27.0303 24.4697 27.171C24.6103 27.3116 24.8011 27.3906 25 27.3906C25.1989 27.3906 25.3897 27.3116 25.5303 27.171C25.671 27.0303 25.75 26.8395 25.75 26.6406V26.2656C25.75 25.2344 26.7597 24.3906 28 24.3906C29.2403 24.3906 30.25 25.2344 30.25 26.2656C30.25 27.2969 29.2403 28.1406 28 28.1406C27.8011 28.1406 27.6103 28.2196 27.4697 28.3603C27.329 28.5009 27.25 28.6917 27.25 28.8906V29.6406C27.25 29.8395 27.329 30.0303 27.4697 30.171C27.6103 30.3116 27.8011 30.3906 28 30.3906C28.1989 30.3906 28.3897 30.3116 28.5303 30.171C28.671 30.0303 28.75 29.8395 28.75 29.6406V29.5731C30.46 29.2591 31.75 27.895 31.75 26.2656C31.75 24.4047 30.0681 22.8906 28 22.8906ZM37.75 28.1406C37.75 30.069 37.1782 31.9541 36.1068 33.5574C35.0355 35.1608 33.5127 36.4105 31.7312 37.1485C29.9496 37.8864 27.9892 38.0795 26.0979 37.7033C24.2066 37.3271 22.4693 36.3985 21.1057 35.0349C19.7422 33.6714 18.8136 31.9341 18.4373 30.0428C18.0611 28.1514 18.2542 26.191 18.9922 24.4095C19.7301 22.6279 20.9798 21.1051 22.5832 20.0338C24.1866 18.9625 26.0716 18.3906 28 18.3906C30.585 18.3934 33.0634 19.4215 34.8913 21.2493C36.7192 23.0772 37.7473 25.5556 37.75 28.1406ZM36.25 28.1406C36.25 26.5089 35.7662 24.9139 34.8596 23.5572C33.9531 22.2005 32.6646 21.143 31.1571 20.5186C29.6497 19.8942 27.9909 19.7308 26.3905 20.0491C24.7902 20.3675 23.3202 21.1532 22.1664 22.307C21.0126 23.4608 20.2269 24.9308 19.9085 26.5311C19.5902 28.1315 19.7536 29.7903 20.378 31.2978C21.0024 32.8053 22.0598 34.0937 23.4166 35.0002C24.7733 35.9068 26.3683 36.3906 28 36.3906C30.1873 36.3881 32.2843 35.5182 33.8309 33.9715C35.3775 32.4249 36.2475 30.3279 36.25 28.1406Z" fill="#4A148C"/>
</svg>
